<svg width="17" height="24" viewBox="0 0 17 24" fill="none" xmlns="http://www.w3.org/2000/svg">
<path d="M8.728 23.224C7.23467 23.224 5.89067 22.968 4.696 22.456C3.50133 21.9227 2.56267 21.176 1.88 20.216C1.19733 19.256 0.856 18.136 0.856 16.856H4.76C4.84533 17.816 5.21867 18.6053 5.88 19.224C6.56267 19.8427 7.512 20.152 8.728 20.152C9.98667 20.152 10.968 19.8533 11.672 19.256C12.376 18.6373 12.728 17.848 12.728 16.888C12.728 16.1413 12.504 15.5333 12.056 15.064C11.6293 14.5947 11.0853 14.232 10.424 13.976C9.784 13.72 8.888 13.4427 7.736 13.144C6.28533 12.76 5.10133 12.376 4.184 11.992C3.288 11.5867 2.52 10.968 1.88 10.136C1.24 9.304 0.92 8.19467 0.92 6.808C0.92 5.528 1.24 4.408 1.88 3.448C2.52 2.488 3.416 1.752 4.568 1.24C5.72 0.727999 7.05333 0.471998 8.568 0.471998C10.7227 0.471998 12.4827 1.016 13.848 2.104C15.2347 3.17067 16.0027 4.64267 16.152 6.52H12.12C12.056 5.70933 11.672 5.016 10.968 4.44C10.264 3.864 9.336 3.576 8.184 3.576C7.13867 3.576 6.28533 3.84267 5.624 4.376C4.96267 4.90933 4.632 5.67733 4.632 6.68C4.632 7.36267 4.83467 7.928 5.24 8.376C5.66667 8.80267 6.2 9.144 6.84 9.4C7.48 9.656 8.35467 9.93333 9.464 10.232C10.936 10.6373 12.1307 11.0427 13.048 11.448C13.9867 11.8533 14.776 12.4827 15.416 13.336C16.0773 14.168 16.408 15.288 16.408 16.696C16.408 17.8267 16.0987 18.8933 15.48 19.896C14.8827 20.8987 13.9973 21.7093 12.824 22.328C11.672 22.9253 10.3067 23.224 8.728 23.224Z" fill="#29A867"/>
</svg>
